G04 ================== begin FILE IDENTIFICATION RECORD ==================*
G04 Layout Name:  C:/USERS/AROSI/DESKTOP/P1_ - COPY/allegro/P1_PCB_rev2.brd*
G04 Film Name:    FAB*
G04 File Format:  Gerber RS274X*
G04 File Origin:  Cadence Allegro 17.2-S025*
G04 Origin Date:  Sat Jan 20 19:47:40 2024*
G04 *
G04 Layer:  MANUFACTURING/NCLEGEND-1-2*
G04 Layer:  MANUFACTURING/NCDRILL_LEGEND*
G04 Layer:  MANUFACTURING/NCDRILL_FIGURE*
G04 Layer:  DRAWING FORMAT/DRAWING_ORIGIN*
G04 Layer:  BOARD GEOMETRY/DIMENSION*
G04 Layer:  BOARD GEOMETRY/CUTOUT*
G04 *
G04 Offset:    (0.00 0.00)*
G04 Mirror:    No*
G04 Mode:      Positive*
G04 Rotation:  0*
G04 FullContactRelief:  No*
G04 UndefLineWidth:     10.00*
G04 ================== end FILE IDENTIFICATION RECORD ====================*
%FSLAX25Y25*MOIN*%
%IR0*IPPOS*OFA0.00000B0.00000*MIA0B0*SFA1.00000B1.00000*%
%AMMACRO11*
1,1,.01,.025,0.0*
20,1,.01,.025,0.0,-.025,0.0,0.0*
1,1,.01,-.025,0.0*
1,1,.01,0.0,.025*
20,1,.01,0.0,.025,0.0,-.025,0.0*
1,1,.01,0.0,-.025*
%
%ADD11MACRO11*%
%AMMACRO10*
1,1,.01,.025,0.0*
20,1,.01,.025,0.0,.02462,-.004341,0.0*
1,1,.01,.02462,-.004341*
20,1,.01,.02462,-.004341,.023492,-.008551,0.0*
1,1,.01,.023492,-.008551*
20,1,.01,.023492,-.008551,.021651,-.0125,0.0*
1,1,.01,.021651,-.0125*
20,1,.01,.021651,-.0125,.019151,-.01607,0.0*
1,1,.01,.019151,-.01607*
20,1,.01,.019151,-.01607,.01607,-.019151,0.0*
1,1,.01,.01607,-.019151*
20,1,.01,.01607,-.019151,.0125,-.021651,0.0*
1,1,.01,.0125,-.021651*
20,1,.01,.0125,-.021651,.008551,-.023492,0.0*
1,1,.01,.008551,-.023492*
20,1,.01,.008551,-.023492,.004341,-.02462,0.0*
1,1,.01,.004341,-.02462*
20,1,.01,.004341,-.02462,0.0,-.025,0.0*
1,1,.01,0.0,-.025*
20,1,.01,0.0,-.025,-.004341,-.02462,0.0*
1,1,.01,-.004341,-.02462*
20,1,.01,-.004341,-.02462,-.008551,-.023492,0.0*
1,1,.01,-.008551,-.023492*
20,1,.01,-.008551,-.023492,-.0125,-.021651,0.0*
1,1,.01,-.0125,-.021651*
20,1,.01,-.0125,-.021651,-.01607,-.019151,0.0*
1,1,.01,-.01607,-.019151*
20,1,.01,-.01607,-.019151,-.019151,-.01607,0.0*
1,1,.01,-.019151,-.01607*
20,1,.01,-.019151,-.01607,-.021651,-.0125,0.0*
1,1,.01,-.021651,-.0125*
20,1,.01,-.021651,-.0125,-.023492,-.008551,0.0*
1,1,.01,-.023492,-.008551*
20,1,.01,-.023492,-.008551,-.02462,-.004341,0.0*
1,1,.01,-.02462,-.004341*
20,1,.01,-.02462,-.004341,-.025,0.0,0.0*
1,1,.01,-.025,0.0*
20,1,.01,-.025,0.0,-.02462,.004341,0.0*
1,1,.01,-.02462,.004341*
20,1,.01,-.02462,.004341,-.023492,.008551,0.0*
1,1,.01,-.023492,.008551*
20,1,.01,-.023492,.008551,-.021651,.0125,0.0*
1,1,.01,-.021651,.0125*
20,1,.01,-.021651,.0125,-.019151,.01607,0.0*
1,1,.01,-.019151,.01607*
20,1,.01,-.019151,.01607,-.01607,.019151,0.0*
1,1,.01,-.01607,.019151*
20,1,.01,-.01607,.019151,-.0125,.021651,0.0*
1,1,.01,-.0125,.021651*
20,1,.01,-.0125,.021651,-.008551,.023492,0.0*
1,1,.01,-.008551,.023492*
20,1,.01,-.008551,.023492,-.004341,.02462,0.0*
1,1,.01,-.004341,.02462*
20,1,.01,-.004341,.02462,0.0,.025,0.0*
1,1,.01,0.0,.025*
20,1,.01,0.0,.025,.004341,.02462,0.0*
1,1,.01,.004341,.02462*
20,1,.01,.004341,.02462,.008551,.023492,0.0*
1,1,.01,.008551,.023492*
20,1,.01,.008551,.023492,.0125,.021651,0.0*
1,1,.01,.0125,.021651*
20,1,.01,.0125,.021651,.01607,.019151,0.0*
1,1,.01,.01607,.019151*
20,1,.01,.01607,.019151,.019151,.01607,0.0*
1,1,.01,.019151,.01607*
20,1,.01,.019151,.01607,.021651,.0125,0.0*
1,1,.01,.021651,.0125*
20,1,.01,.021651,.0125,.023492,.008551,0.0*
1,1,.01,.023492,.008551*
20,1,.01,.023492,.008551,.02462,.004341,0.0*
1,1,.01,.02462,.004341*
20,1,.01,.02462,.004341,.025,0.0,0.0*
1,1,.01,.025,0.0*
1,1,.01,.0125,0.0*
20,1,.01,.0125,0.0,-.0125,0.0,0.0*
1,1,.01,-.0125,0.0*
1,1,.01,0.0,.0125*
20,1,.01,0.0,.0125,0.0,-.0125,0.0*
1,1,.01,0.0,-.0125*
%
%ADD10MACRO10*%
%ADD12C,.01*%
G75*
%LPD*%
G75*
G54D10*
X-105050Y-97500D03*
X42500Y12500D03*
X32500Y50000D03*
Y31137D03*
X47500Y55000D03*
X77500Y40000D03*
Y25000D03*
X117500D03*
X112500Y27500D03*
X117500Y70000D03*
X112500D03*
G54D11*
X0Y0D03*
G54D12*
G01X-150000Y-110000D02*
Y-10000D01*
X346000D01*
Y-110000D01*
X-150000D01*
G01X-138995Y-78750D02*
Y-66250D01*
X-133105D01*
G01X-135275Y-72292D02*
X-138995D01*
G01X-125510Y-66250D02*
X-121790D01*
G01X-123650D02*
Y-78750D01*
G01X-125510D02*
X-121790D01*
G01X-110320Y-72500D02*
X-107220D01*
Y-76250D01*
X-108150Y-77500D01*
X-109235Y-78333D01*
X-110785Y-78750D01*
X-112335Y-78333D01*
X-113420Y-77500D01*
X-114350Y-76250D01*
X-114970Y-74792D01*
X-115280Y-73125D01*
Y-71667D01*
X-114970Y-70417D01*
X-114350Y-68958D01*
X-113420Y-67708D01*
X-112490Y-66875D01*
X-111250Y-66250D01*
X-110165D01*
X-108925Y-66667D01*
X-107995Y-67500D01*
G01X-102260Y-66250D02*
Y-75208D01*
X-101640Y-77084D01*
X-100400Y-78333D01*
X-98850Y-78750D01*
X-97300Y-78333D01*
X-96060Y-77084D01*
X-95440Y-75208D01*
Y-66250D01*
G01X-89550Y-78750D02*
Y-66250D01*
X-85675D01*
X-84435Y-66875D01*
X-83660Y-67708D01*
X-83350Y-69375D01*
X-83660Y-71042D01*
X-84590Y-72083D01*
X-85675Y-72708D01*
X-89550D01*
G01X-85675D02*
X-83350Y-78750D01*
G01X-70950D02*
X-77150D01*
Y-66250D01*
X-70950D01*
G01X-73430Y-72292D02*
X-77150D01*
G01X-150000Y-85000D02*
X346000D01*
G01X-150000Y-60000D02*
X346000D01*
G01X-150000Y-35000D02*
X346000D01*
G01X-60100Y-60000D02*
Y-110000D01*
G01X-60410Y-28750D02*
Y-16250D01*
X-57310D01*
X-56070Y-16875D01*
X-55140Y-17708D01*
X-54365Y-18958D01*
X-53745Y-20417D01*
X-53590Y-22500D01*
X-53745Y-24583D01*
X-54365Y-26042D01*
X-55140Y-27292D01*
X-56070Y-28125D01*
X-57310Y-28750D01*
X-60410D01*
G01X-47700D02*
Y-16250D01*
X-43825D01*
X-42585Y-16875D01*
X-41810Y-17708D01*
X-41500Y-19375D01*
X-41810Y-21042D01*
X-42740Y-22083D01*
X-43825Y-22708D01*
X-47700D01*
G01X-43825D02*
X-41500Y-28750D01*
G01X-34060Y-16250D02*
X-30340D01*
G01X-32200D02*
Y-28750D01*
G01X-34060D02*
X-30340D01*
G01X-22900Y-16250D02*
Y-28750D01*
X-16700D01*
G01X-10500Y-16250D02*
Y-28750D01*
X-4300D01*
G01X20810Y-17292D02*
X19880Y-16667D01*
X18795Y-16250D01*
X17555D01*
X16160Y-16875D01*
X15075Y-17917D01*
X14300Y-19167D01*
X13680Y-21250D01*
X13525Y-23125D01*
X13835Y-25000D01*
X14300Y-26250D01*
X15230Y-27500D01*
X16315Y-28333D01*
X17400Y-28750D01*
X18485D01*
X19570Y-28333D01*
X20500Y-27709D01*
X21275Y-26875D01*
G01X26545Y-28750D02*
Y-16250D01*
G01X33055D02*
Y-28750D01*
G01Y-22500D02*
X26545D01*
G01X38325Y-28750D02*
X42200Y-16250D01*
X46075Y-28750D01*
G01X44680Y-24375D02*
X39720D01*
G01X51500Y-28750D02*
Y-16250D01*
X55375D01*
X56615Y-16875D01*
X57390Y-17708D01*
X57700Y-19375D01*
X57390Y-21042D01*
X56460Y-22083D01*
X55375Y-22708D01*
X51500D01*
G01X55375D02*
X57700Y-28750D01*
G01X67000Y-16250D02*
Y-28750D01*
G01X63435Y-16250D02*
X70565D01*
G01X79400Y-29167D02*
X79090Y-28958D01*
Y-28542D01*
X79400Y-28333D01*
X79710Y-28542D01*
Y-28958D01*
X79400Y-29167D01*
G01Y-23542D02*
X79090Y-23333D01*
Y-22917D01*
X79400Y-22708D01*
X79710Y-22917D01*
Y-23333D01*
X79400Y-23542D01*
G01X104200Y-16250D02*
Y-28750D01*
G01X100635Y-16250D02*
X107765D01*
G01X116600Y-28750D02*
X115360Y-28542D01*
X114275Y-27709D01*
X113345Y-26458D01*
X112725Y-25000D01*
X112415Y-23333D01*
Y-21667D01*
X112725Y-20000D01*
X113345Y-18542D01*
X114275Y-17292D01*
X115360Y-16458D01*
X116600Y-16250D01*
X117840Y-16458D01*
X118925Y-17292D01*
X119855Y-18542D01*
X120475Y-20000D01*
X120785Y-21667D01*
Y-23333D01*
X120475Y-25000D01*
X119855Y-26458D01*
X118925Y-27709D01*
X117840Y-28542D01*
X116600Y-28750D01*
G01X125900D02*
Y-16250D01*
X129620D01*
X130860Y-16875D01*
X131790Y-18333D01*
X132100Y-20000D01*
X131790Y-21667D01*
X131015Y-22917D01*
X129620Y-23542D01*
X125900D01*
G01X153800Y-16250D02*
Y-28750D01*
G01X151630Y-20417D02*
X155970D01*
G01X166200Y-28750D02*
X165270Y-28542D01*
X164340Y-27709D01*
X163720Y-26250D01*
X163410Y-24583D01*
X163720Y-22917D01*
X164340Y-21458D01*
X165270Y-20625D01*
X166200Y-20417D01*
X167130Y-20625D01*
X168060Y-21458D01*
X168680Y-22917D01*
X168835Y-24583D01*
X168680Y-26250D01*
X168060Y-27709D01*
X167130Y-28542D01*
X166200Y-28750D01*
G01X192240Y-22083D02*
X192860Y-21458D01*
X193325Y-20417D01*
X193635Y-18958D01*
X193325Y-17708D01*
X192705Y-16875D01*
X191620Y-16250D01*
X187435D01*
Y-28750D01*
X192550D01*
X193635Y-27917D01*
X194255Y-26667D01*
X194565Y-25208D01*
X194255Y-23750D01*
X193325Y-22500D01*
X192240Y-22083D01*
X187435D01*
G01X203400Y-28750D02*
X202160Y-28542D01*
X201075Y-27709D01*
X200145Y-26458D01*
X199525Y-25000D01*
X199215Y-23333D01*
Y-21667D01*
X199525Y-20000D01*
X200145Y-18542D01*
X201075Y-17292D01*
X202160Y-16458D01*
X203400Y-16250D01*
X204640Y-16458D01*
X205725Y-17292D01*
X206655Y-18542D01*
X207275Y-20000D01*
X207585Y-21667D01*
Y-23333D01*
X207275Y-25000D01*
X206655Y-26458D01*
X205725Y-27709D01*
X204640Y-28542D01*
X203400Y-28750D01*
G01X215800Y-16250D02*
Y-28750D01*
G01X212235Y-16250D02*
X219365D01*
G01X228200D02*
Y-28750D01*
G01X224635Y-16250D02*
X231765D01*
G01X240600Y-28750D02*
X239360Y-28542D01*
X238275Y-27709D01*
X237345Y-26458D01*
X236725Y-25000D01*
X236415Y-23333D01*
Y-21667D01*
X236725Y-20000D01*
X237345Y-18542D01*
X238275Y-17292D01*
X239360Y-16458D01*
X240600Y-16250D01*
X241840Y-16458D01*
X242925Y-17292D01*
X243855Y-18542D01*
X244475Y-20000D01*
X244785Y-21667D01*
Y-23333D01*
X244475Y-25000D01*
X243855Y-26458D01*
X242925Y-27709D01*
X241840Y-28542D01*
X240600Y-28750D01*
G01X248970D02*
Y-16250D01*
X253000Y-26667D01*
X257030Y-16250D01*
Y-28750D01*
G01X-36695Y-78750D02*
Y-66250D01*
X-30805D01*
G01X-32975Y-72292D02*
X-36695D01*
G01X-23210Y-66250D02*
X-19490D01*
G01X-21350D02*
Y-78750D01*
G01X-23210D02*
X-19490D01*
G01X-12515D02*
Y-66250D01*
X-5385Y-78750D01*
Y-66250D01*
G01X1590D02*
X5310D01*
G01X3450D02*
Y-78750D01*
G01X1590D02*
X5310D01*
G01X12595Y-77084D02*
X13835Y-78125D01*
X15230Y-78750D01*
X16470D01*
X17710Y-78125D01*
X18640Y-77084D01*
X19105Y-75625D01*
X18795Y-74167D01*
X18020Y-72917D01*
X16625Y-72083D01*
X14765Y-71667D01*
X13680Y-70833D01*
X13215Y-69375D01*
X13525Y-67917D01*
X14300Y-66875D01*
X15385Y-66250D01*
X16470D01*
X17555Y-66667D01*
X18485Y-67708D01*
G01X24995Y-78750D02*
Y-66250D01*
G01X31505D02*
Y-78750D01*
G01Y-72500D02*
X24995D01*
G01X43750Y-78750D02*
X37550D01*
Y-66250D01*
X43750D01*
G01X41270Y-72292D02*
X37550D01*
G01X49640Y-78750D02*
Y-66250D01*
X52740D01*
X53980Y-66875D01*
X54910Y-67708D01*
X55685Y-68958D01*
X56305Y-70417D01*
X56460Y-72500D01*
X56305Y-74583D01*
X55685Y-76042D01*
X54910Y-77292D01*
X53980Y-78125D01*
X52740Y-78750D01*
X49640D01*
G01X60800Y-82917D02*
X70100D01*
G01X74595Y-77084D02*
X75835Y-78125D01*
X77230Y-78750D01*
X78470D01*
X79710Y-78125D01*
X80640Y-77084D01*
X81105Y-75625D01*
X80795Y-74167D01*
X80020Y-72917D01*
X78625Y-72083D01*
X76765Y-71667D01*
X75680Y-70833D01*
X75215Y-69375D01*
X75525Y-67917D01*
X76300Y-66875D01*
X77385Y-66250D01*
X78470D01*
X79555Y-66667D01*
X80485Y-67708D01*
G01X88390Y-66250D02*
X92110D01*
G01X90250D02*
Y-78750D01*
G01X88390D02*
X92110D01*
G01X99705Y-66250D02*
X105595D01*
X99705Y-78750D01*
X105595D01*
G01X118150D02*
X111950D01*
Y-66250D01*
X118150D01*
G01X115670Y-72292D02*
X111950D01*
G01X-29875Y-53750D02*
X-26000Y-41250D01*
X-22125Y-53750D01*
G01X-23520Y-49375D02*
X-28480D01*
G01X-16700Y-41250D02*
Y-53750D01*
X-10500D01*
G01X-4300Y-41250D02*
Y-53750D01*
X1900D01*
G01X20190Y-41250D02*
Y-50208D01*
X20810Y-52084D01*
X22050Y-53333D01*
X23600Y-53750D01*
X25150Y-53333D01*
X26390Y-52084D01*
X27010Y-50208D01*
Y-41250D01*
G01X32435Y-53750D02*
Y-41250D01*
X39565Y-53750D01*
Y-41250D01*
G01X46540D02*
X50260D01*
G01X48400D02*
Y-53750D01*
G01X46540D02*
X50260D01*
G01X60800Y-41250D02*
Y-53750D01*
G01X57235Y-41250D02*
X64365D01*
G01X69945Y-52084D02*
X71185Y-53125D01*
X72580Y-53750D01*
X73820D01*
X75060Y-53125D01*
X75990Y-52084D01*
X76455Y-50625D01*
X76145Y-49167D01*
X75370Y-47917D01*
X73975Y-47083D01*
X72115Y-46667D01*
X71030Y-45833D01*
X70565Y-44375D01*
X70875Y-42917D01*
X71650Y-41875D01*
X72735Y-41250D01*
X73820D01*
X74905Y-41667D01*
X75835Y-42708D01*
G01X94125Y-53750D02*
X98000Y-41250D01*
X101875Y-53750D01*
G01X100480Y-49375D02*
X95520D01*
G01X107300Y-53750D02*
Y-41250D01*
X111175D01*
X112415Y-41875D01*
X113190Y-42708D01*
X113500Y-44375D01*
X113190Y-46042D01*
X112260Y-47083D01*
X111175Y-47708D01*
X107300D01*
G01X111175D02*
X113500Y-53750D01*
G01X125900D02*
X119700D01*
Y-41250D01*
X125900D01*
G01X123420Y-47292D02*
X119700D01*
G01X145740Y-41250D02*
X149460D01*
G01X147600D02*
Y-53750D01*
G01X145740D02*
X149460D01*
G01X156435D02*
Y-41250D01*
X163565Y-53750D01*
Y-41250D01*
G01X180770Y-53750D02*
Y-41250D01*
X184800Y-51667D01*
X188830Y-41250D01*
Y-53750D01*
G01X195340Y-41250D02*
X199060D01*
G01X197200D02*
Y-53750D01*
G01X195340D02*
X199060D01*
G01X206500Y-41250D02*
Y-53750D01*
X212700D01*
G01X218745Y-52084D02*
X219985Y-53125D01*
X221380Y-53750D01*
X222620D01*
X223860Y-53125D01*
X224790Y-52084D01*
X225255Y-50625D01*
X224945Y-49167D01*
X224170Y-47917D01*
X222775Y-47083D01*
X220915Y-46667D01*
X219830Y-45833D01*
X219365Y-44375D01*
X219675Y-42917D01*
X220450Y-41875D01*
X221535Y-41250D01*
X222620D01*
X223705Y-41667D01*
X224635Y-42708D01*
G01X22050Y-103750D02*
Y-91250D01*
X20190Y-93750D01*
G01Y-103750D02*
X23910D01*
G01X31505Y-98542D02*
X32590Y-97083D01*
X33520Y-96250D01*
X34760Y-95833D01*
X35845Y-96250D01*
X36620Y-97083D01*
X37240Y-98333D01*
X37395Y-99792D01*
X37240Y-101042D01*
X36620Y-102292D01*
X35690Y-103333D01*
X34605Y-103750D01*
X33365Y-103333D01*
X32280Y-102084D01*
X31660Y-100208D01*
X31505Y-98125D01*
X31815Y-95417D01*
X32280Y-93958D01*
X33055Y-92500D01*
X34140Y-91458D01*
X35225Y-91250D01*
X36310Y-91667D01*
X37085Y-92708D01*
G01X46850Y-104167D02*
X46540Y-103958D01*
Y-103542D01*
X46850Y-103333D01*
X47160Y-103542D01*
Y-103958D01*
X46850Y-104167D01*
G01X59250Y-91250D02*
X58010Y-91667D01*
X57080Y-92708D01*
X56460Y-93958D01*
X55995Y-95625D01*
X55840Y-97500D01*
X55995Y-99375D01*
X56460Y-101042D01*
X57080Y-102292D01*
X58010Y-103333D01*
X59250Y-103750D01*
X60490Y-103333D01*
X61420Y-102292D01*
X62040Y-101042D01*
X62505Y-99375D01*
X62660Y-97500D01*
X62505Y-95625D01*
X62040Y-93958D01*
X61420Y-92708D01*
X60490Y-91667D01*
X59250Y-91250D01*
G01X170850Y-103750D02*
Y-91250D01*
X174570D01*
X175810Y-91875D01*
X176740Y-93333D01*
X177050Y-95000D01*
X176740Y-96667D01*
X175965Y-97917D01*
X174570Y-98542D01*
X170850D01*
G01X183250Y-91250D02*
Y-103750D01*
X189450D01*
G01X194875D02*
X198750Y-91250D01*
X202625Y-103750D01*
G01X201230Y-99375D02*
X196270D01*
G01X211150Y-91250D02*
Y-103750D01*
G01X207585Y-91250D02*
X214715D01*
G01X226650Y-103750D02*
X220450D01*
Y-91250D01*
X226650D01*
G01X224170Y-97292D02*
X220450D01*
G01X232540Y-103750D02*
Y-91250D01*
X235640D01*
X236880Y-91875D01*
X237810Y-92708D01*
X238585Y-93958D01*
X239205Y-95417D01*
X239360Y-97500D01*
X239205Y-99583D01*
X238585Y-101042D01*
X237810Y-102292D01*
X236880Y-103125D01*
X235640Y-103750D01*
X232540D01*
G01X141400Y-60000D02*
Y-110000D01*
G01X170850Y-78750D02*
Y-66250D01*
X174570D01*
X175810Y-66875D01*
X176740Y-68333D01*
X177050Y-70000D01*
X176740Y-71667D01*
X175965Y-72917D01*
X174570Y-73542D01*
X170850D01*
G01X183250Y-66250D02*
Y-78750D01*
X189450D01*
G01X194875D02*
X198750Y-66250D01*
X202625Y-78750D01*
G01X201230Y-74375D02*
X196270D01*
G01X211150Y-66250D02*
Y-78750D01*
G01X207585Y-66250D02*
X214715D01*
G01X226650Y-78750D02*
X220450D01*
Y-66250D01*
X226650D01*
G01X224170Y-72292D02*
X220450D01*
G01X232540Y-78750D02*
Y-66250D01*
X235640D01*
X236880Y-66875D01*
X237810Y-67708D01*
X238585Y-68958D01*
X239205Y-70417D01*
X239360Y-72500D01*
X239205Y-74583D01*
X238585Y-76042D01*
X237810Y-77292D01*
X236880Y-78125D01*
X235640Y-78750D01*
X232540D01*
G01X268500Y-60000D02*
Y-110000D01*
G01X301050Y-103750D02*
Y-91250D01*
X299190Y-93750D01*
G01Y-103750D02*
X302910D01*
G01X313450Y-91250D02*
X312210Y-91667D01*
X311280Y-92708D01*
X310660Y-93958D01*
X310195Y-95625D01*
X310040Y-97500D01*
X310195Y-99375D01*
X310660Y-101042D01*
X311280Y-102292D01*
X312210Y-103333D01*
X313450Y-103750D01*
X314690Y-103333D01*
X315620Y-102292D01*
X316240Y-101042D01*
X316705Y-99375D01*
X316860Y-97500D01*
X316705Y-95625D01*
X316240Y-93958D01*
X315620Y-92708D01*
X314690Y-91667D01*
X313450Y-91250D01*
G01X294850Y-78750D02*
X293610Y-78542D01*
X292525Y-77709D01*
X291595Y-76458D01*
X290975Y-75000D01*
X290665Y-73333D01*
Y-71667D01*
X290975Y-70000D01*
X291595Y-68542D01*
X292525Y-67292D01*
X293610Y-66458D01*
X294850Y-66250D01*
X296090Y-66458D01*
X297175Y-67292D01*
X298105Y-68542D01*
X298725Y-70000D01*
X299035Y-71667D01*
Y-73333D01*
X298725Y-75000D01*
X298105Y-76458D01*
X297175Y-77709D01*
X296090Y-78542D01*
X294850Y-78750D01*
G01X296090Y-75417D02*
X297950Y-78750D01*
G01X307250Y-66250D02*
Y-78750D01*
G01X303685Y-66250D02*
X310815D01*
G01X319650Y-78750D02*
Y-73125D01*
X316550Y-66250D01*
G01X322750D02*
X319650Y-73125D01*
M02*
